Coordinates
version=1
nRows=14
nColumns=40
inDegrees=yes

Units are S.I. units (second, meters, Newtons, ...)
Angles are in degrees.

endheader
time	pelvis_tilt	pelvis_list	pelvis_rotation	pelvis_tx	pelvis_ty	pelvis_tz	hip_flexion_r	hip_adduction_r	hip_rotation_r	knee_angle_r	knee_angle_r_beta	ankle_angle_r	subtalar_angle_r	mtp_angle_r	hip_flexion_l	hip_adduction_l	hip_rotation_l	knee_angle_l	knee_angle_l_beta	ankle_angle_l	subtalar_angle_l	mtp_angle_l	lumbar_extension	lumbar_bending	lumbar_rotation	arm_flex_r	arm_add_r	arm_rot_r	elbow_flex_r	pro_sup_r	wrist_flex_r	wrist_dev_r	arm_flex_l	arm_add_l	arm_rot_l	elbow_flex_l	pro_sup_l	wrist_flex_l	wrist_dev_l
     16.69228571	     -4.68010554	     -5.13453361	     -0.65240693	      0.94958889	      0.93373700	      0.43289382	     36.31531400	     -5.30281428	     -9.91752643	     47.19007415	     47.19007415	      3.69075548	    -15.36952252	      4.73237651	     11.96045809	     -5.49202788	    -11.67517845	     18.16516809	     18.16516809	     13.73935291	     -4.97103407	     -6.80851892	    -11.30820082	      2.58105372	     -0.18267165	     -1.77405203	    -15.22144425	     -7.26822220	     26.61499801	     47.27287937	      0.00000000	      0.00000000	     17.79818576	    -13.66668527	     -1.16889762	     38.39504608	     46.00096151	      0.00000000	      0.00000000
     16.70457143	     -4.72416546	     -5.18723618	     -0.84074483	      0.94878300	      0.93351917	      0.43348505	     36.06264367	     -4.90807992	     -9.90901821	     42.82501557	     42.82501557	      2.83377165	    -13.81664227	      4.85971649	     11.40338379	     -5.54840396	    -11.70318721	     17.95055793	     17.95055793	     13.95970093	     -5.13455387	     -6.82059595	    -11.47542149	      2.68106511	      0.24626434	     -3.21390694	    -15.69701043	     -7.71518372	     25.28187300	     47.34616848	      0.00000000	      0.00000000	     18.83635522	    -13.70601032	     -1.19393953	     39.61967430	     46.02963806	      0.00000000	      0.00000000
     16.71685714	     -4.96592788	     -5.16742745	     -1.02112122	      0.94805507	      0.93292297	      0.43420933	     35.88176905	     -4.54225553	     -9.99729611	     38.29164217	     38.29164217	      2.03104501	    -12.08350455	      5.18898936	     11.06182231	     -5.53784041	    -11.75298356	     17.74473542	     17.74473542	     14.17609262	     -5.27036921	     -6.86295668	    -11.34526395	      2.68901916	      0.24232867	     -4.41174174	    -16.06157412	     -8.04317132	     24.34158485	     47.39986235	      0.00000000	      0.00000000	     19.58953760	    -13.94862540	     -1.21611731	     40.51910479	     46.05068819	      0.00000000	      0.00000000
     16.72914286	     -5.02187856	     -5.04531451	     -1.22351230	      0.94767770	      0.93241066	      0.43493937	     35.15660732	     -4.26614805	    -10.36631973	     33.22179136	     33.22179136	     -0.26294202	    -10.36786839	      1.04053215	     10.41591892	     -5.35229680	    -11.64776819	     17.37075901	     17.37075901	     14.22531667	     -5.79197923	     -7.04208773	    -11.48489878	      2.56621485	      0.15311813	     -4.55459248	    -15.97346009	    -12.26059308	     21.33516811	     47.85794306	      0.00000000	      0.00000000	     19.28130761	    -14.77949272	     -0.10818002	     44.23366313	     46.01162353	      0.00000000	      0.00000000
     16.74142857	     -5.15375134	     -4.92949250	     -1.45172097	      0.94744156	      0.93170551	      0.43588935	     34.59541548	     -3.92475403	    -10.79544698	     28.60268190	     28.60268190	     -0.82902849	     -7.74604289	      1.87194118	      9.88963073	     -5.25246400	    -11.80379588	     17.12789272	     17.12789272	     14.46268970	     -5.84651466	     -7.13620566	    -11.46331857	      2.46381012	      0.53813208	     -5.94571399	    -16.25378239	    -13.00388880	     20.80615543	     47.92476819	      0.00000000	      0.00000000	     20.15112950	    -14.77199717	     -0.19346476	     45.14486842	     46.05506810	      0.00000000	      0.00000000
     16.75371429	     -5.35172682	     -4.81459299	     -1.68437085	      0.94741684	      0.93076439	      0.43706131	     33.99661681	     -3.45390080	    -11.13423313	     24.04341047	     24.04341047	     -1.42470674	     -5.38957211	      2.90137992	      9.45056535	     -5.16671480	    -11.90897936	     16.94136368	     16.94136368	     14.71125758	     -5.98182810	     -7.22930054	    -11.29131124	      2.36259301	      0.58573682	     -7.04574230	    -16.49037521	    -13.28933603	     20.45894005	     47.95199365	      0.00000000	      0.00000000	     20.71169071	    -14.97401834	     -0.26500031	     45.94958964	     46.08125783	      0.00000000	      0.00000000
     16.76600000	     -5.31064413	     -4.64965548	     -1.89046610	      0.94781749	      0.92996497	      0.43823275	     33.12264195	     -3.11057905	    -11.89823989	     19.89144542	     19.89144542	     -1.67312280	     -2.39231728	      4.18132457	      8.66205709	     -5.00263895	    -12.03568533	     16.64389479	     16.64389479	     14.98243029	     -6.10054264	     -7.35923277	    -11.42149514	      2.21933001	      0.89198201	     -8.35552439	    -16.76864496	    -13.72925399	     20.25359268	     47.98255342	      0.00000000	      0.00000000	     21.17754858	    -15.06910035	     -0.30120105	     47.38564963	     46.11207352	      0.00000000	      0.00000000
     16.77828571	     -5.36290885	     -4.35814138	     -2.13628719	      0.94838950	      0.92890743	      0.43951050	     32.65443789	     -2.93991041	    -12.73500187	     16.81573140	     16.81573140	     -0.52788631	      0.88134101	      8.89038422	      7.91114299	     -4.66175254	    -12.06952542	     16.20061836	     16.20061836	     14.95274241	     -6.55481034	     -7.94164118	    -11.43216946	      1.90287334	      0.93315243	     -9.75481328	    -16.73093095	    -15.92127172	     21.53964116	     48.04845926	      0.00000000	      0.00000000	     20.66872917	    -15.64503322	      0.11549606	     50.76304950	     46.16672891	      0.00000000	      0.00000000
     16.79057143	     -5.34941570	     -4.17646322	     -2.35776561	      0.94934451	      0.92779453	      0.44105387	     31.94724341	     -2.53693404	    -13.38322307	     13.86844583	     13.86844583	     -0.57620940	      3.08267614	     10.06146746	      7.10841689	     -4.50011193	    -12.24231204	     15.89676068	     15.89676068	     15.27806376	     -6.56050025	     -8.07593947	    -11.37768445	      1.74504933	      1.19397402	    -10.81849390	    -16.85571301	    -16.15135419	     21.26232496	     48.05910208	      0.00000000	      0.00000000	     21.05866114	    -15.71214432	      0.01954096	     51.64955045	     46.19963249	      0.00000000	      0.00000000
     16.80285714	     -5.35499146	     -3.93151281	     -2.60035903	      0.95047823	      0.92662493	      0.44267108	     31.55812996	     -2.32841813	    -14.21748597	     12.11988040	     12.11988040	      0.61743630	      5.41312147	     13.87140596	      6.25758263	     -4.24053783	    -12.37189061	     15.45846985	     15.45846985	     15.45181273	     -6.73968956	     -8.45127128	    -11.31174248	      1.49676926	      1.26760325	    -12.05472724	    -16.82962858	    -17.15467384	     22.37974892	     48.00555599	      0.00000000	      0.00000000	     20.65934413	    -16.04553661	     -0.02359642	     54.12824803	     46.28943753	      0.00000000	      0.00000000
     16.81514286	     -5.33556783	     -3.76548070	     -2.81987318	      0.95190274	      0.92537929	      0.44447641	     31.00713756	     -1.95837510	    -14.57625199	     10.63376081	     10.63376081	      0.75094856	      6.57082981	     14.33197895	      5.41084229	     -4.10112411	    -12.55295130	     15.14270056	     15.14270056	     15.83221006	     -6.70399113	     -8.51089363	    -11.15269908	      1.34456096	      1.49284755	    -12.86164546	    -16.82715902	    -17.23314895	     22.25918357	     47.99718221	      0.00000000	      0.00000000	     20.82023012	    -16.02540276	     -0.13384358	     54.88934192	     46.31660459	      0.00000000	      0.00000000
     16.82742857	     -5.23748984	     -3.61088812	     -3.02777861	      0.95364862	      0.92420178	      0.44631581	     30.54196576	     -1.74425771	    -15.23618901	     10.12435614	     10.12435614	      1.30153128	      7.87352484	     15.03817118	      4.39646389	     -3.94790739	    -12.71852552	     14.70666876	     14.70666876	     16.24003122	     -6.63281591	     -8.49041392	    -11.09937520	      1.23011649	      1.51374391	    -13.88931775	    -16.81334183	    -17.57586622	     23.29652346	     47.91359435	      0.00000000	      0.00000000	     20.20818427	    -16.25757355	     -0.44694085	     57.18472634	     46.40274952	      0.00000000	      0.00000000
     16.83971429	     -5.33099996	     -3.52392034	     -3.18814609	      0.95540653	      0.92264337	      0.44830519	     30.27907767	     -1.44813694	    -15.27299251	     10.09519011	     10.09519011	      1.57638860	      7.91235319	     14.95208206	      3.79567007	     -3.93331485	    -12.77636888	     14.66072206	     14.66072206	     16.69917755	     -6.74694268	     -8.60124245	    -10.69201643	      1.20223183	      1.42924395	    -14.24784949	    -16.78648882	    -17.59234244	     23.20309522	     47.91348414	      0.00000000	      0.00000000	     20.20035942	    -16.32379261	     -0.49912796	     57.31634751	     46.40989090	      0.00000000	      0.00000000
     16.85200000	     -5.01515691	     -3.51419632	     -3.39515980	      0.95787061	      0.92184630	      0.45036118	     29.46425128	     -1.13570666	    -15.38066606	     10.39629771	     10.39629771	      1.74698258	      8.04190753	     14.36140739	      2.32024916	     -3.89667348	    -13.02067540	     13.90713821	     13.90713821	     17.14379182	     -6.38781064	     -8.28054232	    -10.79074011	      1.29006465	      1.90244159	    -15.03976768	    -16.73843080	    -17.65178036	     23.35175464	     47.88919641	      0.00000000	      0.00000000	     19.89784127	    -16.07422591	     -0.74346242	     58.67315936	     46.45340599	      0.00000000	      0.00000000
